<svg width="25" height="33" viewBox="0 0 25 33" fill="none" xmlns="http://www.w3.org/2000/svg">
<path d="M1.00044 0H18.8002L25 6.66732V8.18945H22.9979V7.55889L17.9716 2.15314H2.00172V29.9378H22.9979V24.1198H25V32.0909H0V0H1.00044Z" fill="#83D3DB"/>
<path fill-rule="evenodd" clip-rule="evenodd" d="M18.3857 1.07681L23.9992 7.11313H18.3857V1.07681Z" fill="#83D3DB"/>
<path d="M19.0933 0.315506L24.9997 6.66731V8.18944H17.3845V0H18.7999L19.0933 0.315506ZM21.5826 6.03676L19.3867 3.67527V6.03676H21.5826Z" fill="#83D3DB"/>
<path d="M8.39351 22.2749H6.20142L10.1977 11.3943C10.4113 10.8142 10.7118 10.4061 11.0998 10.1705C11.4877 9.93486 11.985 9.81683 12.592 9.81683C13.1876 9.81683 13.6794 9.93486 14.0673 10.1705C14.4552 10.4061 14.7503 10.8142 14.9525 11.3943L18.7968 22.2749H16.5878L13.131 12.428C13.0297 12.1497 12.8444 12.0108 12.5743 12.0108C12.3045 12.0108 12.1137 12.1497 12.001 12.428L8.39267 22.2749H8.39351Z" fill="#2C3C54"/>
<path d="M24.987 10.0348V22.2749H22.9976V10.0348H24.987Z" fill="#2C3C54"/>
</svg>
